<svg xmlns="http://www.w3.org/2000/svg" viewBox="0 0 96 96" role="img" aria-label="WhatsApp">
  <rect width="96" height="96" rx="28" fill="#F0FFF6"/>
  <circle cx="48" cy="48" r="31" fill="#19B85A"/>
  <path d="M31 68 35 56a26 26 0 1 1 10 10z" fill="none" stroke="#fff" stroke-width="6" stroke-linecap="round" stroke-linejoin="round"/>
  <path d="M40 35c2-2 5-1 6 2l2 4c1 2 0 4-2 5l-1 1c3 5 7 8 12 10l1-1c2-2 4-2 6-1l4 2c3 1 4 4 2 7-2 3-6 5-11 3-11-4-22-15-26-26-2-5 0-9 3-11z" fill="#fff"/>
</svg>
